{"asset": {"version": "2.0", "generator": "darak"}, "scene": 0, "scenes": [{"nodes": [0]}], "nodes": [{"mesh": 0, "name": "RoomB"}], "meshes": [{"name": "RoomB", "primitives": [{"attributes": {"POSITION": 0, "NORMAL": 1}, "indices": 2, "material": 0, "mode": 4}]}], "materials": [{"name": "RoomB_mat", "doubleSided": true, "pbrMetallicRoughness": {"baseColorFactor": [0.25, 0.48, 0.9, 1.0], "metallicFactor": 0.1, "roughnessFactor": 0.85}}], "buffers": [{"byteLength": 3240, "uri": "data:application/octet-stream;base64,"}], "bufferViews": [{"buffer": 0, "byteOffset": 0, "byteLength": 1440, "target": 34962}, {"buffer": 0, "byteOffset": 1440, "byteLength": 1440, "target": 34962}, {"buffer": 0, "byteOffset": 2880, "byteLength": 360, "target": 34963}], "accessors": [{"bufferView": 0, "componentType": 5126, "count": 120, "type": "VEC3", "min": [-3.075, 0, -2.075], "max": [3.075, 2.7, 2.075]}, {"bufferView": 1, "componentType": 5126, "count": 120, "type": "VEC3"}, {"bufferView": 2, "componentType": 5123, "count": 180, "type": "SCALAR"}]}